<?xml version="1.0" encoding="utf-8"?>
<!-- Generated by IcoMoon.io -->
<svg version="1.1" xmlns="http://www.w3.org/2000/svg" xmlns:xlink="http://www.w3.org/1999/xlink" width="752" height="108" viewBox="0 0 752 108">
<svg id="icon-createspt" width="24" height="24" viewBox="0 0 24 24" x="0" y="0">
<path d="M20.719 7.031l-1.828 1.828-3.75-3.75 1.828-1.828q0.281-0.281 0.703-0.281t0.703 0.281l2.344 2.344q0.281 0.281 0.281 0.703t-0.281 0.703zM3 17.25l11.063-11.063 3.75 3.75-11.063 11.063h-3.75v-3.75z"></path>
</svg>
<svg id="icon-format_quotespt" width="24" height="24" viewBox="0 0 24 24" x="40" y="0">
<path d="M14.016 17.016l1.969-4.031h-3v-6h6v6l-1.969 4.031h-3zM6 17.016l2.016-4.031h-3v-6h6v6l-2.016 4.031h-3z"></path>
</svg>
<svg id="icon-lightbulb_outlinespt" width="24" height="24" viewBox="0 0 24 24" x="80" y="0">
<path d="M14.859 13.078q2.156-1.5 2.156-4.078 0-2.063-1.477-3.539t-3.539-1.477-3.539 1.477-1.477 3.539q0 1.078 0.633 2.25t1.523 1.828l0.844 0.609v2.297h4.031v-2.297zM12 2.016q2.906 0 4.945 2.039t2.039 4.945q0 3.656-3 5.719v2.297q0 0.422-0.281 0.703t-0.703 0.281h-6q-0.422 0-0.703-0.281t-0.281-0.703v-2.297q-3-2.063-3-5.719 0-2.906 2.039-4.945t4.945-2.039zM9 21v-0.984h6v0.984q0 0.422-0.281 0.703t-0.703 0.281h-4.031q-0.422 0-0.703-0.281t-0.281-0.703z"></path>
</svg>
<svg id="icon-psychologyspt" width="24" height="24" viewBox="0 0 24 24" x="120" y="0">
<path d="M12.984 8.578q-0.563 0-0.984 0.422t-0.422 0.984q0 0.609 0.422 1.031t0.984 0.422q0.609 0 1.031-0.422t0.422-1.031q0-0.563-0.422-0.984t-1.031-0.422zM12.984 3q-1.406 0-2.625 0.516t-2.18 1.43-1.523 2.109-0.656 2.602l-1.922 2.531q-0.188 0.281-0.047 0.539t0.469 0.258h1.5v3q0 0.844 0.586 1.43t1.43 0.586h0.984v3h6.984v-4.688q1.781-0.844 2.906-2.531t1.125-3.797q0-1.453-0.563-2.719t-1.523-2.227-2.227-1.5-2.719-0.539zM15.984 9.984v0.422l0.844 0.656q0.094 0.094 0.047 0.234l-0.797 1.406q-0.094 0.141-0.281 0.094l-0.984-0.422q-0.281 0.234-0.656 0.375l-0.141 1.078q-0.047 0.188-0.234 0.188h-1.594q-0.141 0-0.188-0.188l-0.141-1.078q-0.375-0.141-0.703-0.375l-0.984 0.422q-0.141 0.047-0.234-0.094l-0.797-1.406q-0.094-0.141 0.047-0.234l0.844-0.656q0-0.094-0.023-0.211t-0.023-0.211 0.023-0.188 0.023-0.188l-0.844-0.656q-0.141-0.094-0.047-0.281l0.797-1.359q0.094-0.141 0.234-0.094l1.031 0.422q0.328-0.281 0.656-0.422l0.141-1.031q0.047-0.188 0.188-0.188h1.594q0.188 0 0.234 0.188l0.141 1.031q0.328 0.141 0.656 0.422l0.984-0.422q0.188-0.047 0.281 0.094l0.797 1.359q0.094 0.188-0.047 0.281l-0.891 0.656q0.047 0.141 0.047 0.375z"></path>
</svg>
<svg id="icon-shopping-cartspt" width="32" height="32" viewBox="0 0 32 32">
<path d="M4 2h16l-3 9h-13c-0.552 0-1 0.448-1 1s0.448 1 1 1v0h13v2h-13c-1.657 0-3-1.343-3-3s1.343-3 3-3v0h0.33l-1.33-4-1-3h-2v-2h3c0.552 0 1 0.448 1 1v0 1zM5 20c-1.105 0-2-0.895-2-2s0.895-2 2-2v0c1.105 0 2 0.895 2 2s-0.895 2-2 2v0zM15 20c-1.105 0-2-0.895-2-2s0.895-2 2-2v0c1.105 0 2 0.895 2 2s-0.895 2-2 2v0z"></path>
</svg>
<svg id="icon-pencilspt"  viewBox="0 0 32 32" x="0" y="76">
<path d="M27 0c2.761 0 5 2.239 5 5 0 1.126-0.372 2.164-1 3l-2 2-7-7 2-2c0.836-0.628 1.874-1 3-1zM2 23l-2 9 9-2 18.5-18.5-7-7-18.5 18.5zM22.362 11.362l-14 14-1.724-1.724 14-14 1.724 1.724z"></path>
</svg>
<symbol id="icon-box-addspt" viewBox="0 0 32 32" >
<path d="M26 2h-20l-6 6v21c0 0.552 0.448 1 1 1h30c0.552 0 1-0.448 1-1v-21l-6-6zM16 26l-10-8h6v-6h8v6h6l-10 8zM4.828 6l2-2h18.343l2 2h-22.343z"></path>
</symbol>
<svg id="icon-bin2spt" viewBox="0 0 32 32">
<path d="M6 32h20l2-22h-24zM20 4v-4h-8v4h-10v6l2-2h24l2 2v-6h-10zM18 4h-4v-2h4v2z"></path>
</svg>
</svg>
